<svg xmlns="http://www.w3.org/2000/svg" width="50" height="39" viewBox="0 0 50 39" fill="none">
    <g clip-path="url(#clip0_147_2996)">
        <path
            d="M19.6168 0.913709L5.83467 34.5701C5.69391 34.9139 6.03283 35.259 6.37692 35.1225L14.3166 31.9691C14.4208 31.9278 14.5042 31.8462 14.5482 31.7426L23.1198 11.5766C23.264 11.2374 23.7416 11.2346 23.8896 11.572L27.3996 19.5684C27.5202 19.8433 27.8803 19.9068 28.0869 19.6896L32.8349 14.6962C32.9493 14.5758 32.9826 14.3989 32.9196 14.2449L27.4661 0.913853C27.4016 0.755784 27.2482 0.652588 27.0781 0.652588H20.0047C19.8347 0.652588 19.6814 0.755717 19.6168 0.913709Z"
            fill="url(#paint0_linear_147_2996)" />
        <path
            d="M43.5693 37.466L37.5137 23.4711C37.3938 23.1937 37.0307 23.1299 36.824 23.3496L33.2536 27.1474C33.1007 27.3099 33.1011 27.5643 33.2543 27.7267L42.88 37.924C43.203 38.2662 43.7564 37.8984 43.5693 37.466Z"
            fill="white" />
        <path
            d="M32.0641 18.1028C18.2819 33.2533 16.2416 34.4335 0.00537109 38.9851C29.5831 35.2342 34.9113 22.0846 44.3356 11.1687L48.2125 14.361L49.9994 0L35.7217 4.62362L39.6254 7.77938C39.2182 8.2436 36.7489 12.9528 32.0641 18.1028Z"
            fill="url(#paint1_linear_147_2996)" />
    </g>
    <defs>
        <linearGradient id="paint0_linear_147_2996" x1="66.8921" y1="40.4946" x2="71.335" y2="2.39285"
            gradientUnits="userSpaceOnUse">
            <stop stop-color="white" />
            <stop offset="1" stop-color="white" />
        </linearGradient>
        <linearGradient id="paint1_linear_147_2996" x1="48.6303" y1="0.463682" x2="-0.160713" y2="38.0532"
            gradientUnits="userSpaceOnUse">
            <stop stop-color="white" />
            <stop offset="1" stop-color="white" />
        </linearGradient>
    </defs>
</svg>