<svg width="3006" height="2334" viewBox="0 0 3006 2334" fill="none" xmlns="http://www.w3.org/2000/svg">
<path d="M1179.36 54.6869L350.776 2068.89C342.313 2089.47 362.689 2110.12 383.376 2101.95L860.709 1913.23C866.973 1910.76 871.987 1905.88 874.632 1899.68L1389.96 692.817C1398.63 672.523 1427.34 672.354 1436.24 692.545L1647.26 1171.1C1654.51 1187.55 1676.16 1191.35 1688.58 1178.35L1974.03 879.515C1980.91 872.308 1982.91 861.724 1979.12 852.506L1651.26 54.6955C1647.38 45.2357 1638.16 39.0598 1627.93 39.0598H1202.68C1192.46 39.0598 1183.24 45.2317 1179.36 54.6869Z" fill="url(#paint0_linear_1268_12)"/>
<path d="M2619.39 2242.19L2255.33 1404.65C2248.12 1388.05 2226.29 1384.23 2213.86 1397.38L1999.21 1624.66C1990.02 1634.39 1990.04 1649.61 1999.25 1659.33L2577.95 2269.6C2597.37 2290.08 2630.64 2268.07 2619.39 2242.19Z" fill="#0076D6"/>
<path d="M1927.68 1083.38C1099.09 1990.08 976.43 2060.71 0.306641 2333.11C1778.52 2108.63 2098.85 1321.68 2665.44 668.406L2898.52 859.448L3005.95 0L2147.57 276.706L2382.26 465.566C2357.78 493.348 2209.33 775.176 1927.68 1083.38Z" fill="url(#paint1_linear_1268_12)"/>
<defs>
<linearGradient id="paint0_linear_1268_12" x1="4021.55" y1="2423.45" x2="4286.26" y2="142.93" gradientUnits="userSpaceOnUse">
<stop stop-color="#0076D6"/>
<stop offset="1" stop-color="#0B8FFB"/>
</linearGradient>
<linearGradient id="paint1_linear_1268_12" x1="2923.64" y1="27.7496" x2="0.309203" y2="2290.24" gradientUnits="userSpaceOnUse">
<stop stop-color="#0B8FFB"/>
<stop offset="1" stop-color="#0076D6"/>
</linearGradient>
</defs>
</svg>
