<svg xmlns="http://www.w3.org/2000/svg" width="50" height="39" viewBox="0 0 50 39" fill="none">
    <g clip-path="url(#clip0_147_3016)">
        <path
            d="M19.6167 0.913709L5.83455 34.5701C5.69378 34.9139 6.03271 35.259 6.3768 35.1225L14.3165 31.9691C14.4207 31.9278 14.5041 31.8462 14.5481 31.7426L23.1197 11.5766C23.2639 11.2374 23.7415 11.2346 23.8895 11.572L27.3995 19.5684C27.5201 19.8433 27.8802 19.9068 28.0868 19.6896L32.8348 14.6962C32.9492 14.5758 32.9825 14.3989 32.9195 14.2449L27.466 0.913853C27.4015 0.755784 27.2481 0.652588 27.078 0.652588H20.0046C19.8346 0.652588 19.6813 0.755717 19.6167 0.913709Z"
            fill="url(#paint0_linear_147_3016)" />
        <path
            d="M43.5693 37.466L37.5137 23.4711C37.3938 23.1937 37.0307 23.1299 36.824 23.3496L33.2536 27.1474C33.1007 27.3099 33.1011 27.5643 33.2543 27.7267L42.88 37.924C43.203 38.2662 43.7564 37.8984 43.5693 37.466Z"
            fill="#0076D6" />
        <path
            d="M32.064 18.1028C18.2818 33.2533 16.2415 34.4335 0.00524902 38.9851C29.583 35.2342 34.9112 22.0846 44.3355 11.1687L48.2124 14.361L49.9993 0L35.7215 4.62362L39.6252 7.77938C39.218 8.2436 36.7488 12.9528 32.064 18.1028Z"
            fill="url(#paint1_linear_147_3016)" />
    </g>
    <defs>
        <linearGradient id="paint0_linear_147_3016" x1="66.892" y1="40.4946" x2="71.3349" y2="2.39285"
            gradientUnits="userSpaceOnUse">
            <stop stop-color="#0076D6" />
            <stop offset="1" stop-color="#0B8FFB" />
        </linearGradient>
        <linearGradient id="paint1_linear_147_3016" x1="48.6302" y1="0.463682" x2="-0.160835" y2="38.0532"
            gradientUnits="userSpaceOnUse">
            <stop stop-color="#0B8FFB" />
            <stop offset="1" stop-color="#0076D6" />
        </linearGradient>
    </defs>
</svg>